<svg width="199" height="19" viewBox="0 0 199 19" fill="none" xmlns="http://www.w3.org/2000/svg">
<path d="M8.218 1.008C8.878 1.008 9.56 1.06667 10.264 1.184C10.9827 1.30133 11.5473 1.46267 11.958 1.668C12.09 1.712 12.1707 1.77067 12.2 1.844C12.244 1.90267 12.2733 2.01267 12.288 2.174L12.552 5.034C12.552 5.078 12.5153 5.10733 12.442 5.122C12.3687 5.13667 12.3247 5.11467 12.31 5.056C11.8847 3.912 11.2393 3.03933 10.374 2.438C9.52333 1.83667 8.51867 1.536 7.36 1.536C5.83467 1.536 4.63933 2.07133 3.774 3.142C2.90867 4.21267 2.476 5.65 2.476 7.454C2.476 8.80333 2.71067 10.0427 3.18 11.172C3.664 12.3013 4.324 13.196 5.16 13.856C6.01067 14.516 6.95667 14.846 7.998 14.846C9.978 14.846 11.4813 13.614 12.508 11.15C12.5227 11.0913 12.5667 11.0693 12.64 11.084C12.728 11.0987 12.772 11.128 12.772 11.172L12.442 13.988C12.4127 14.164 12.376 14.2813 12.332 14.34C12.3027 14.384 12.222 14.4353 12.09 14.494C10.814 15.0073 9.45733 15.264 8.02 15.264C6.23067 15.264 4.742 14.912 3.554 14.208C2.366 13.4893 1.486 12.58 0.914 11.48C0.356667 10.38 0.0780001 9.236 0.0780001 8.048C0.0780001 6.66933 0.452 5.44467 1.2 4.374C1.96267 3.30333 2.96733 2.47467 4.214 1.888C5.46067 1.30133 6.79533 1.008 8.218 1.008ZM29.4248 14.736C29.4688 14.736 29.4908 14.78 29.4908 14.868C29.4908 14.956 29.4688 15 29.4248 15C28.9408 15 28.5595 14.9927 28.2808 14.978L26.6968 14.956L24.9588 14.978C24.6801 14.9927 24.2915 15 23.7928 15C23.7488 15 23.7268 14.956 23.7268 14.868C23.7268 14.78 23.7488 14.736 23.7928 14.736C24.3061 14.736 24.6801 14.6993 24.9148 14.626C25.1641 14.5527 25.3328 14.4133 25.4208 14.208C25.5088 13.988 25.5528 13.658 25.5528 13.218V3.23C25.5528 2.73133 25.5308 2.40133 25.4868 2.24C25.4428 2.07867 25.3401 1.976 25.1788 1.932C25.0321 1.888 24.7168 1.866 24.2328 1.866H19.7228C19.2241 1.866 18.8868 1.888 18.7108 1.932C18.5348 1.976 18.4248 2.086 18.3808 2.262C18.3368 2.42333 18.3148 2.746 18.3148 3.23V13.218C18.3148 13.658 18.3588 13.988 18.4468 14.208C18.5348 14.4133 18.6961 14.5527 18.9308 14.626C19.1655 14.6993 19.5468 14.736 20.0748 14.736C20.1188 14.736 20.1408 14.78 20.1408 14.868C20.1408 14.956 20.1188 15 20.0748 15C19.5908 15 19.2021 14.9927 18.9088 14.978L17.1488 14.956L15.5868 14.978C15.3081 14.9927 14.9195 15 14.4208 15C14.3915 15 14.3768 14.956 14.3768 14.868C14.3768 14.78 14.3915 14.736 14.4208 14.736C14.9488 14.736 15.3375 14.6993 15.5868 14.626C15.8361 14.5527 16.0048 14.4133 16.0928 14.208C16.1808 13.988 16.2248 13.658 16.2248 13.218V3.296C16.2248 2.636 16.1075 2.174 15.8728 1.91C15.6381 1.646 15.1615 1.514 14.4428 1.514C14.4135 1.514 14.3988 1.47 14.3988 1.382C14.3988 1.294 14.4135 1.25 14.4428 1.25C14.9415 1.25 15.4255 1.25733 15.8948 1.272C17.8601 1.30133 19.8988 1.316 22.0108 1.316C23.9615 1.316 26.1908 1.294 28.6988 1.25H29.4248C29.4688 1.25 29.4908 1.294 29.4908 1.382C29.4908 1.47 29.4688 1.514 29.4248 1.514C28.7061 1.514 28.2295 1.646 27.9948 1.91C27.7601 2.174 27.6428 2.636 27.6428 3.296V13.218C27.6428 13.658 27.6868 13.988 27.7748 14.208C27.8628 14.4133 28.0315 14.5527 28.2808 14.626C28.5301 14.6993 28.9115 14.736 29.4248 14.736ZM34.7498 13.13C34.7498 13.5993 34.8012 13.944 34.9038 14.164C35.0212 14.3693 35.2338 14.516 35.5418 14.604C35.8645 14.692 36.3632 14.736 37.0378 14.736C37.0818 14.736 37.1038 14.78 37.1038 14.868C37.1038 14.956 37.0818 15 37.0378 15C36.4365 15 35.9672 14.9927 35.6298 14.978L33.7158 14.956L32.1318 14.978C31.8532 14.9927 31.4718 15 30.9878 15C30.9438 15 30.9218 14.956 30.9218 14.868C30.9218 14.78 30.9438 14.736 30.9878 14.736C31.4865 14.736 31.8458 14.6993 32.0658 14.626C32.2858 14.5527 32.4325 14.4133 32.5058 14.208C32.5938 14.0027 32.6378 13.6727 32.6378 13.218V3.032C32.6378 2.592 32.5938 2.26933 32.5058 2.064C32.4325 1.85867 32.2785 1.71933 32.0438 1.646C31.8238 1.558 31.4718 1.514 30.9878 1.514C30.9438 1.514 30.9218 1.47 30.9218 1.382C30.9218 1.294 30.9438 1.25 30.9878 1.25L32.1318 1.272C32.7772 1.30133 33.2978 1.316 33.6938 1.316C34.0312 1.316 34.4418 1.294 34.9258 1.25C35.1018 1.23533 35.3365 1.22067 35.6298 1.206C35.9378 1.19133 36.2972 1.184 36.7078 1.184C38.1598 1.184 39.3038 1.492 40.1398 2.108C40.9905 2.724 41.4158 3.67 41.4158 4.946C41.4158 5.87 41.1738 6.65467 40.6898 7.3C40.2205 7.94533 39.6118 8.42933 38.8638 8.752C38.1305 9.07467 37.3752 9.236 36.5978 9.236C36.1872 9.236 35.8425 9.19933 35.5638 9.126C35.5198 9.126 35.4978 9.08933 35.4978 9.016C35.4978 8.972 35.5052 8.928 35.5198 8.884C35.5492 8.84 35.5785 8.82533 35.6078 8.84C35.8425 8.89867 36.0992 8.928 36.3778 8.928C37.1405 8.928 37.7858 8.61267 38.3138 7.982C38.8418 7.35133 39.1058 6.44933 39.1058 5.276C39.1058 4.11733 38.8345 3.22267 38.2918 2.592C37.7492 1.94667 37.0012 1.624 36.0478 1.624C35.6958 1.624 35.4245 1.66067 35.2338 1.734C35.0578 1.80733 34.9332 1.94667 34.8598 2.152C34.7865 2.34267 34.7498 2.65067 34.7498 3.076V13.13ZM56.7299 14.736C56.8032 14.736 56.8399 14.78 56.8399 14.868C56.8399 14.956 56.8032 15 56.7299 15C56.4512 15 56.0039 14.9853 55.3879 14.956C54.7719 14.9267 54.3246 14.912 54.0459 14.912C53.6792 14.912 53.2466 14.9267 52.7479 14.956C52.2492 14.9853 51.8606 15 51.5819 15C51.5232 15 51.4939 14.956 51.4939 14.868C51.4939 14.78 51.5232 14.736 51.5819 14.736C52.0072 14.736 52.3152 14.692 52.5059 14.604C52.7112 14.5013 52.8139 14.34 52.8139 14.12C52.8139 13.9 52.6892 13.526 52.4399 12.998L50.0639 8.18H46.0819L44.3879 11.986C44.1972 12.426 44.1019 12.822 44.1019 13.174C44.1019 13.6873 44.2852 14.076 44.6519 14.34C45.0186 14.604 45.5319 14.736 46.1919 14.736C46.2652 14.736 46.3019 14.78 46.3019 14.868C46.3019 14.956 46.2652 15 46.1919 15C45.9279 15 45.5466 14.9853 45.0479 14.956C44.4906 14.9267 44.0066 14.912 43.5959 14.912C43.1999 14.912 42.7379 14.9267 42.2099 14.956C41.7406 14.9853 41.3519 15 41.0439 15C40.9706 15 40.9339 14.956 40.9339 14.868C40.9339 14.78 40.9706 14.736 41.0439 14.736C41.4546 14.736 41.7992 14.6553 42.0779 14.494C42.3566 14.3327 42.6279 14.0467 42.8919 13.636C43.1559 13.2107 43.4712 12.5873 43.8379 11.766L48.5679 1.118C48.5972 1.074 48.6632 1.052 48.7659 1.052C48.8686 1.052 48.9272 1.074 48.9419 1.118L54.3319 11.986C54.8452 13.042 55.2706 13.768 55.6079 14.164C55.9599 14.5453 56.3339 14.736 56.7299 14.736ZM46.3239 7.63H49.7999L47.9739 3.934L46.3239 7.63ZM64.4505 7.278C65.6532 7.41 66.6138 7.81333 67.3325 8.488C68.0512 9.16267 68.4105 9.99867 68.4105 10.996C68.4105 11.7587 68.1978 12.4553 67.7725 13.086C67.3618 13.702 66.7825 14.1933 66.0345 14.56C65.3012 14.912 64.4798 15.088 63.5705 15.088C63.1452 15.088 62.6538 15.066 62.0965 15.022C61.9058 15.0073 61.6638 14.9927 61.3705 14.978C61.0772 14.9633 60.7472 14.956 60.3805 14.956L58.7965 14.978C58.5178 14.9927 58.1365 15 57.6525 15C57.6085 15 57.5865 14.956 57.5865 14.868C57.5865 14.78 57.6085 14.736 57.6525 14.736C58.1218 14.736 58.4738 14.6993 58.7085 14.626C58.9432 14.538 59.1045 14.3913 59.1925 14.186C59.2952 13.9807 59.3465 13.658 59.3465 13.218V3.032C59.3465 2.60667 59.2952 2.29133 59.1925 2.086C59.1045 1.866 58.9432 1.71933 58.7085 1.646C58.4885 1.558 58.1438 1.514 57.6745 1.514C57.6452 1.514 57.6305 1.47 57.6305 1.382C57.6305 1.294 57.6452 1.25 57.6745 1.25L58.8185 1.272C59.4638 1.30133 59.9845 1.316 60.3805 1.316C60.7912 1.316 61.2238 1.294 61.6785 1.25C61.8398 1.23533 62.0305 1.22067 62.2505 1.206C62.4852 1.19133 62.7492 1.184 63.0425 1.184C64.3478 1.184 65.3452 1.44067 66.0345 1.954C66.7385 2.45267 67.0905 3.14933 67.0905 4.044C67.0905 4.73333 66.8558 5.364 66.3865 5.936C65.9318 6.508 65.2865 6.95533 64.4505 7.278ZM62.6685 1.624C62.1992 1.624 61.8765 1.71933 61.7005 1.91C61.5392 2.10067 61.4585 2.48933 61.4585 3.076V7.256L62.3825 7.278C63.2478 7.278 63.9005 6.99933 64.3405 6.442C64.7805 5.87 65.0005 5.13667 65.0005 4.242C65.0005 3.406 64.8025 2.76067 64.4065 2.306C64.0105 1.85133 63.4312 1.624 62.6685 1.624ZM63.2185 14.582C65.1985 14.582 66.1885 13.5627 66.1885 11.524C66.1885 10.4093 65.8952 9.51467 65.3085 8.84C64.7365 8.16533 63.8932 7.828 62.7785 7.828C62.2505 7.828 61.8105 7.84267 61.4585 7.872V13.218C61.4585 13.5553 61.5025 13.8193 61.5905 14.01C61.6785 14.2007 61.8472 14.3473 62.0965 14.45C62.3458 14.538 62.7198 14.582 63.2185 14.582ZM80.3127 11.568C80.3127 11.5387 80.342 11.524 80.4007 11.524C80.4447 11.524 80.4814 11.5387 80.5107 11.568C80.5547 11.5827 80.5767 11.5973 80.5767 11.612C80.43 12.7267 80.3567 13.746 80.3567 14.67C80.3567 14.7873 80.3347 14.8753 80.2907 14.934C80.2467 14.978 80.1587 15 80.0267 15H70.4787C70.4347 15 70.4127 14.956 70.4127 14.868C70.4127 14.78 70.4347 14.736 70.4787 14.736C70.9774 14.736 71.3367 14.6993 71.5567 14.626C71.7914 14.5527 71.9454 14.4133 72.0187 14.208C72.1067 13.988 72.1507 13.658 72.1507 13.218V3.032C72.1507 2.592 72.1067 2.26933 72.0187 2.064C71.9454 1.85867 71.7914 1.71933 71.5567 1.646C71.322 1.558 70.9627 1.514 70.4787 1.514C70.4347 1.514 70.4127 1.47 70.4127 1.382C70.4127 1.294 70.4347 1.25 70.4787 1.25H79.6307C79.7774 1.25 79.8507 1.316 79.8507 1.448L79.8947 4.308C79.8947 4.33733 79.8507 4.35933 79.7627 4.374C79.6894 4.38867 79.6454 4.374 79.6307 4.33C79.2787 2.658 78.2594 1.822 76.5727 1.822H75.6927C75.1647 1.822 74.7907 1.91733 74.5707 2.108C74.3507 2.29867 74.2407 2.62133 74.2407 3.076V7.564H76.3527C77.966 7.564 78.7727 7.02133 78.7727 5.936C78.7727 5.892 78.8094 5.87 78.8827 5.87C78.9707 5.87 79.0147 5.892 79.0147 5.936L78.9927 7.85L79.0147 8.884C79.044 9.35333 79.0587 9.73467 79.0587 10.028C79.0587 10.0573 79.0147 10.072 78.9267 10.072C78.8387 10.072 78.7947 10.0573 78.7947 10.028C78.7947 8.76667 77.9734 8.136 76.3307 8.136H74.2407V13.13C74.2407 13.614 74.3287 13.9513 74.5047 14.142C74.6954 14.3327 75.0254 14.428 75.4947 14.428H76.5727C78.538 14.428 79.7847 13.4747 80.3127 11.568ZM96.2379 14.736C96.3699 14.736 96.4433 14.7507 96.4579 14.78C96.4873 14.7947 96.5019 14.868 96.5019 15C96.5019 15.2053 96.4799 15.462 96.4359 15.77C96.3186 16.782 96.2599 17.7867 96.2599 18.784C96.2599 18.8573 96.2159 18.894 96.1279 18.894C96.0399 18.894 95.9959 18.8573 95.9959 18.784C95.9959 17.552 95.6513 16.6133 94.9619 15.968C94.2873 15.3227 93.2753 15 91.9259 15H85.9419C84.7393 15 83.8666 15.286 83.3239 15.858C82.7813 16.43 82.5099 17.4053 82.5099 18.784C82.5099 18.8573 82.4659 18.894 82.3779 18.894C82.2899 18.894 82.2459 18.8573 82.2459 18.784C82.2459 17.5373 82.1653 16.4813 82.0039 15.616C81.9599 15.308 81.9379 15.0733 81.9379 14.912C81.9379 14.78 81.9453 14.7067 81.9599 14.692C81.9893 14.6627 82.0626 14.648 82.1799 14.648C83.2799 14.648 84.2259 13.9807 85.0179 12.646C85.8246 11.2967 86.4259 9.72 86.8219 7.916C87.2326 6.09733 87.4379 4.55 87.4379 3.274C87.4379 2.10067 86.6606 1.514 85.1059 1.514C85.0619 1.514 85.0399 1.47 85.0399 1.382C85.0399 1.294 85.0619 1.25 85.1059 1.25H95.8199C95.8639 1.25 95.8859 1.294 95.8859 1.382C95.8859 1.47 95.8639 1.514 95.8199 1.514C95.2919 1.514 94.9033 1.558 94.6539 1.646C94.4193 1.71933 94.2579 1.85867 94.1699 2.064C94.0819 2.26933 94.0379 2.592 94.0379 3.032V13.218C94.0379 13.79 94.0673 14.164 94.1259 14.34C94.1846 14.516 94.3459 14.626 94.6099 14.67C94.8739 14.714 95.4166 14.736 96.2379 14.736ZM91.9259 3.076C91.9259 2.60667 91.9039 2.29867 91.8599 2.152C91.8159 1.99067 91.7133 1.89533 91.5519 1.866C91.4053 1.822 91.0973 1.8 90.6279 1.8H89.4179C89.0219 1.8 88.7433 1.844 88.5819 1.932C88.4206 2.02 88.3106 2.174 88.2519 2.394C88.1933 2.614 88.1419 3.01733 88.0979 3.604L88.0539 4.044C87.8779 5.92133 87.5039 7.90867 86.9319 10.006C86.3599 12.1033 85.5313 13.5847 84.4459 14.45H90.5179C91.0606 14.45 91.4053 14.4353 91.5519 14.406C91.7133 14.3767 91.8159 14.2887 91.8599 14.142C91.9039 13.9807 91.9259 13.658 91.9259 13.174V3.076ZM98.3982 15.264C98.0169 15.264 97.7089 15.176 97.4742 15C97.2542 14.8387 97.1442 14.5893 97.1442 14.252C97.1442 13.9293 97.2396 13.6947 97.4302 13.548C97.6356 13.4013 97.8922 13.328 98.2002 13.328H98.6622C99.4689 13.328 100.158 12.8293 100.73 11.832C101.317 10.82 101.757 9.55867 102.05 8.048C102.344 6.52267 102.49 5.01933 102.49 3.538C102.49 2.80467 102.344 2.284 102.05 1.976C101.757 1.668 101.178 1.514 100.312 1.514C100.268 1.514 100.246 1.47 100.246 1.382C100.246 1.294 100.268 1.25 100.312 1.25H111.246C111.276 1.25 111.29 1.294 111.29 1.382C111.29 1.47 111.276 1.514 111.246 1.514C110.718 1.514 110.33 1.558 110.08 1.646C109.846 1.71933 109.684 1.85867 109.596 2.064C109.508 2.26933 109.464 2.592 109.464 3.032V13.218C109.464 13.658 109.508 13.988 109.596 14.208C109.684 14.4133 109.846 14.5527 110.08 14.626C110.33 14.6993 110.718 14.736 111.246 14.736C111.276 14.736 111.29 14.78 111.29 14.868C111.29 14.956 111.276 15 111.246 15C110.762 15 110.374 14.9927 110.08 14.978L108.496 14.956L106.802 14.978C106.509 14.9927 106.106 15 105.592 15C105.548 15 105.526 14.956 105.526 14.868C105.526 14.78 105.548 14.736 105.592 14.736C106.12 14.736 106.502 14.6993 106.736 14.626C106.971 14.5527 107.132 14.4133 107.22 14.208C107.308 13.988 107.352 13.658 107.352 13.218V3.23C107.352 2.73133 107.33 2.40133 107.286 2.24C107.242 2.07867 107.14 1.976 106.978 1.932C106.832 1.888 106.516 1.866 106.032 1.866H104.69C104.25 1.866 103.92 1.90267 103.7 1.976C103.48 2.04933 103.319 2.20333 103.216 2.438C103.128 2.67267 103.084 3.03933 103.084 3.538C103.084 5.078 102.945 6.74267 102.666 8.532C102.402 10.3213 101.918 11.8907 101.214 13.24C100.525 14.5893 99.5862 15.264 98.3982 15.264ZM127.76 14.736C127.804 14.736 127.826 14.78 127.826 14.868C127.826 14.956 127.804 15 127.76 15C127.262 15 126.858 14.9927 126.55 14.978L124.944 14.956L123.074 14.978C122.81 14.9927 122.458 15 122.018 15C121.974 15 121.952 14.956 121.952 14.868C121.952 14.78 121.974 14.736 122.018 14.736C122.576 14.736 122.979 14.6993 123.228 14.626C123.478 14.5527 123.646 14.4133 123.734 14.208C123.822 14.0027 123.866 13.6727 123.866 13.218V4.638L116.584 12.426V13.218C116.584 13.658 116.628 13.988 116.716 14.208C116.804 14.4133 116.973 14.5527 117.222 14.626C117.486 14.6993 117.897 14.736 118.454 14.736C118.484 14.736 118.498 14.78 118.498 14.868C118.498 14.956 118.484 15 118.454 15C117.956 15 117.567 14.9927 117.288 14.978L115.462 14.956L113.856 14.978C113.578 14.9927 113.189 15 112.69 15C112.661 15 112.646 14.956 112.646 14.868C112.646 14.78 112.661 14.736 112.69 14.736C113.218 14.736 113.607 14.6993 113.856 14.626C114.106 14.5527 114.274 14.4133 114.362 14.208C114.45 13.988 114.494 13.658 114.494 13.218V3.032C114.494 2.592 114.45 2.26933 114.362 2.064C114.274 1.85867 114.106 1.71933 113.856 1.646C113.607 1.558 113.226 1.514 112.712 1.514C112.683 1.514 112.668 1.47 112.668 1.382C112.668 1.294 112.683 1.25 112.712 1.25L113.878 1.272C114.553 1.30133 115.081 1.316 115.462 1.316C115.976 1.316 116.584 1.30133 117.288 1.272L118.454 1.25C118.484 1.25 118.498 1.294 118.498 1.382C118.498 1.47 118.484 1.514 118.454 1.514C117.912 1.514 117.508 1.558 117.244 1.646C116.995 1.734 116.819 1.888 116.716 2.108C116.628 2.31333 116.584 2.636 116.584 3.076V11.59L123.866 3.824V3.076C123.866 2.636 123.822 2.31333 123.734 2.108C123.646 1.888 123.47 1.734 123.206 1.646C122.957 1.558 122.561 1.514 122.018 1.514C121.974 1.514 121.952 1.47 121.952 1.382C121.952 1.294 121.974 1.25 122.018 1.25L123.074 1.272C123.778 1.30133 124.402 1.316 124.944 1.316C125.34 1.316 125.876 1.30133 126.55 1.272L127.76 1.25C127.804 1.25 127.826 1.294 127.826 1.382C127.826 1.47 127.804 1.514 127.76 1.514C127.232 1.514 126.844 1.558 126.594 1.646C126.36 1.71933 126.198 1.85867 126.11 2.064C126.022 2.26933 125.978 2.592 125.978 3.032V13.218C125.978 13.658 126.022 13.988 126.11 14.208C126.198 14.4133 126.36 14.5527 126.594 14.626C126.844 14.6993 127.232 14.736 127.76 14.736ZM136.208 7.278C137.411 7.41 138.372 7.81333 139.09 8.488C139.809 9.16267 140.168 9.99867 140.168 10.996C140.168 11.7587 139.956 12.4553 139.53 13.086C139.12 13.702 138.54 14.1933 137.792 14.56C137.059 14.912 136.238 15.088 135.328 15.088C134.903 15.088 134.412 15.066 133.854 15.022C133.664 15.0073 133.422 14.9927 133.128 14.978C132.835 14.9633 132.505 14.956 132.138 14.956L130.554 14.978C130.276 14.9927 129.894 15 129.41 15C129.366 15 129.344 14.956 129.344 14.868C129.344 14.78 129.366 14.736 129.41 14.736C129.88 14.736 130.232 14.6993 130.466 14.626C130.701 14.538 130.862 14.3913 130.95 14.186C131.053 13.9807 131.104 13.658 131.104 13.218V3.032C131.104 2.60667 131.053 2.29133 130.95 2.086C130.862 1.866 130.701 1.71933 130.466 1.646C130.246 1.558 129.902 1.514 129.432 1.514C129.403 1.514 129.388 1.47 129.388 1.382C129.388 1.294 129.403 1.25 129.432 1.25L130.576 1.272C131.222 1.30133 131.742 1.316 132.138 1.316C132.549 1.316 132.982 1.294 133.436 1.25C133.598 1.23533 133.788 1.22067 134.008 1.206C134.243 1.19133 134.507 1.184 134.8 1.184C136.106 1.184 137.103 1.44067 137.792 1.954C138.496 2.45267 138.848 3.14933 138.848 4.044C138.848 4.73333 138.614 5.364 138.144 5.936C137.69 6.508 137.044 6.95533 136.208 7.278ZM134.426 1.624C133.957 1.624 133.634 1.71933 133.458 1.91C133.297 2.10067 133.216 2.48933 133.216 3.076V7.256L134.14 7.278C135.006 7.278 135.658 6.99933 136.098 6.442C136.538 5.87 136.758 5.13667 136.758 4.242C136.758 3.406 136.56 2.76067 136.164 2.306C135.768 1.85133 135.189 1.624 134.426 1.624ZM134.976 14.582C136.956 14.582 137.946 13.5627 137.946 11.524C137.946 10.4093 137.653 9.51467 137.066 8.84C136.494 8.16533 135.651 7.828 134.536 7.828C134.008 7.828 133.568 7.84267 133.216 7.872V13.218C133.216 13.5553 133.26 13.8193 133.348 14.01C133.436 14.2007 133.605 14.3473 133.854 14.45C134.104 14.538 134.478 14.582 134.976 14.582ZM149.365 15.264C148.001 15.264 146.783 14.9487 145.713 14.318C144.657 13.6727 143.835 12.8073 143.249 11.722C142.677 10.622 142.391 9.42667 142.391 8.136C142.391 6.62533 142.772 5.33467 143.535 4.264C144.297 3.17867 145.273 2.36467 146.461 1.822C147.663 1.27933 148.888 1.008 150.135 1.008C151.528 1.008 152.753 1.338 153.809 1.998C154.865 2.64333 155.671 3.50133 156.229 4.572C156.801 5.64267 157.087 6.77933 157.087 7.982C157.087 9.31667 156.735 10.5413 156.031 11.656C155.327 12.7707 154.381 13.6507 153.193 14.296C152.019 14.9413 150.743 15.264 149.365 15.264ZM150.113 14.736C150.993 14.736 151.777 14.5013 152.467 14.032C153.171 13.548 153.721 12.844 154.117 11.92C154.527 10.996 154.733 9.896 154.733 8.62C154.733 7.27067 154.505 6.06067 154.051 4.99C153.611 3.91933 152.973 3.08333 152.137 2.482C151.315 1.88067 150.347 1.58 149.233 1.58C147.81 1.58 146.703 2.09333 145.911 3.12C145.133 4.132 144.745 5.54 144.745 7.344C144.745 8.73733 144.972 9.99867 145.427 11.128C145.896 12.2573 146.534 13.1447 147.341 13.79C148.162 14.4207 149.086 14.736 150.113 14.736ZM167.374 1.008C168.034 1.008 168.716 1.06667 169.42 1.184C170.139 1.30133 170.704 1.46267 171.114 1.668C171.246 1.712 171.327 1.77067 171.356 1.844C171.4 1.90267 171.43 2.01267 171.444 2.174L171.708 5.034C171.708 5.078 171.672 5.10733 171.598 5.122C171.525 5.13667 171.481 5.11467 171.466 5.056C171.041 3.912 170.396 3.03933 169.53 2.438C168.68 1.83667 167.675 1.536 166.516 1.536C164.991 1.536 163.796 2.07133 162.93 3.142C162.065 4.21267 161.632 5.65 161.632 7.454C161.632 8.80333 161.867 10.0427 162.336 11.172C162.82 12.3013 163.48 13.196 164.316 13.856C165.167 14.516 166.113 14.846 167.154 14.846C169.134 14.846 170.638 13.614 171.664 11.15C171.679 11.0913 171.723 11.0693 171.796 11.084C171.884 11.0987 171.928 11.128 171.928 11.172L171.598 13.988C171.569 14.164 171.532 14.2813 171.488 14.34C171.459 14.384 171.378 14.4353 171.246 14.494C169.97 15.0073 168.614 15.264 167.176 15.264C165.387 15.264 163.898 14.912 162.71 14.208C161.522 13.4893 160.642 12.58 160.07 11.48C159.513 10.38 159.234 9.236 159.234 8.048C159.234 6.66933 159.608 5.44467 160.356 4.374C161.119 3.30333 162.124 2.47467 163.37 1.888C164.617 1.30133 165.952 1.008 167.374 1.008ZM177.515 1.712C176.62 1.712 175.88 1.99067 175.293 2.548C174.721 3.09067 174.281 3.91933 173.973 5.034C173.973 5.06333 173.929 5.078 173.841 5.078C173.768 5.078 173.731 5.056 173.731 5.012C173.79 4.44 173.856 3.70667 173.929 2.812C174.002 1.90267 174.039 1.22067 174.039 0.766C174.039 0.692666 174.076 0.656 174.149 0.656C174.237 0.656 174.281 0.692666 174.281 0.766C174.281 1.08867 174.692 1.25 175.513 1.25C176.774 1.294 178.248 1.316 179.935 1.316C180.8 1.316 181.717 1.30133 182.685 1.272L184.181 1.25C184.738 1.25 185.142 1.21333 185.391 1.14C185.655 1.06667 185.824 0.919999 185.897 0.699999C185.912 0.641332 185.956 0.611999 186.029 0.611999C186.102 0.611999 186.139 0.641332 186.139 0.699999C186.095 1.15467 186.051 1.844 186.007 2.768C185.963 3.692 185.941 4.44 185.941 5.012C185.941 5.056 185.897 5.078 185.809 5.078C185.736 5.078 185.692 5.056 185.677 5.012C185.53 3.88267 185.186 3.054 184.643 2.526C184.1 1.98333 183.367 1.712 182.443 1.712C182.032 1.712 181.724 1.74867 181.519 1.822C181.328 1.89533 181.196 2.02733 181.123 2.218C181.064 2.394 181.035 2.68 181.035 3.076V13.218C181.035 13.6727 181.079 14.0027 181.167 14.208C181.255 14.4133 181.431 14.5527 181.695 14.626C181.959 14.6993 182.377 14.736 182.949 14.736C182.993 14.736 183.015 14.78 183.015 14.868C183.015 14.956 182.993 15 182.949 15C182.436 15 182.032 14.9927 181.739 14.978L179.935 14.956L178.219 14.978C177.911 14.9927 177.486 15 176.943 15C176.914 15 176.899 14.956 176.899 14.868C176.899 14.78 176.914 14.736 176.943 14.736C177.515 14.736 177.933 14.6993 178.197 14.626C178.476 14.5527 178.659 14.4133 178.747 14.208C178.85 13.988 178.901 13.658 178.901 13.218V3.032C178.901 2.65067 178.864 2.372 178.791 2.196C178.718 2.02 178.586 1.89533 178.395 1.822C178.204 1.74867 177.911 1.712 177.515 1.712ZM193.963 7.234C195.459 7.234 196.611 7.53467 197.417 8.136C198.224 8.72267 198.627 9.62467 198.627 10.842C198.627 11.6927 198.422 12.4407 198.011 13.086C197.615 13.7167 197.051 14.208 196.317 14.56C195.599 14.912 194.77 15.088 193.831 15.088C193.465 15.088 193.017 15.066 192.489 15.022C191.257 14.978 190.597 14.956 190.509 14.956L189.101 14.978C188.808 14.9927 188.397 15 187.869 15C187.825 15 187.803 14.956 187.803 14.868C187.803 14.78 187.825 14.736 187.869 14.736C188.383 14.7213 188.749 14.6847 188.969 14.626C189.189 14.5527 189.343 14.4207 189.431 14.23C189.519 14.0247 189.563 13.6873 189.563 13.218V3.032C189.563 2.56267 189.519 2.23267 189.431 2.042C189.358 1.83667 189.211 1.70467 188.991 1.646C188.771 1.58733 188.405 1.54333 187.891 1.514C187.862 1.514 187.847 1.47 187.847 1.382C187.847 1.294 187.862 1.25 187.891 1.25L188.969 1.272C189.615 1.30133 190.157 1.316 190.597 1.316C191.052 1.316 191.631 1.30133 192.335 1.272L193.523 1.25C193.567 1.25 193.589 1.294 193.589 1.382C193.589 1.47 193.567 1.514 193.523 1.514C192.966 1.54333 192.563 1.59467 192.313 1.668C192.079 1.72667 191.91 1.85867 191.807 2.064C191.719 2.26933 191.675 2.60667 191.675 3.076V7.432C192.438 7.3 193.201 7.234 193.963 7.234ZM193.435 14.582C194.506 14.582 195.269 14.318 195.723 13.79C196.178 13.2473 196.405 12.404 196.405 11.26C196.405 10.0427 196.156 9.16267 195.657 8.62C195.159 8.06267 194.367 7.784 193.281 7.784C192.885 7.784 192.35 7.83533 191.675 7.938V13.218C191.675 13.6873 191.785 14.032 192.005 14.252C192.24 14.472 192.717 14.582 193.435 14.582Z" fill="white"/>
</svg>
